<?xml version="1.0" encoding="UTF-8"?>
<svg width="25px" height="32px" viewBox="0 0 25 32" version="1.1" xmlns="http://www.w3.org/2000/svg" xmlns:xlink="http://www.w3.org/1999/xlink">
    <!-- Generator: Sketch 55.1 (78136) - https://sketchapp.com -->
    <title>path-1</title>
    <desc>Created with Sketch.</desc>
    <defs>
        <path d="M23.7932308,6.22276923 L13.5138462,0.290461538 C12.8492308,-0.0935384615 12.0221538,-0.0935384615 11.3575385,0.290461538 L1.07815385,6.22276923 C0.413538462,6.61169231 0.00492307692,7.32061538 0.00492307692,8.09353846 L0.00492307692,19.968 C0.00492307692,20.736 0.413538462,21.4449231 1.07815385,21.8338462 L6.22276923,24.8073846 L6.22276923,30.8676923 C6.22276923,31.2270769 6.51323077,31.5126154 6.87261538,31.5126154 C6.98584615,31.5126154 7.09415385,31.4830769 7.19261538,31.424 L23.808,21.8387692 C24.4726154,21.4547692 24.8861538,20.7458462 24.8813169,19.9729231 L24.8813169,8.09353846 C24.8763077,7.31569231 24.4627692,6.60676923 23.7932308,6.22276923 Z" id="path-1"></path>
    </defs>
    <g id="Page-1" stroke="none" stroke-width="1" fill="none" fill-rule="evenodd">
        <g id="logo">
            <mask id="mask-2" fill="white">
                <use xlink:href="#path-1"></use>
            </mask>
            <use id="path-1" fill="#FFFFFF" xlink:href="#path-1"></use>
        </g>
    </g>
</svg>